{"title":"Breaking Dawn (2004).DVDRiP.XViD-TDL","uid":8752856,"size":734138368,"categoryP":"video","categoryS":"movies","magnet":"?xt=urn:btih:807083a9dd488176f3ef633a5559b48e86536b4d&amp;dn=Breaking+Dawn+%282004%29.DVDRiP.XViD-TDL&amp;tr=udp%3A%2F%2Ftracker.openbittorrent.com%3A80&amp;tr=udp%3A%2F%2Fopen.demonii.com%3A1337&amp;tr=udp%3A%2F%2Ftracker.coppersurfer.tk%3A6969&amp;tr=udp%3A%2F%2Fexodus.desync.com%3A6969","seeders":1,"leechers":0,"uploader":null,"files":1,"time":1375075212,"description":"\nBreaking Dawn (2004)-DVDRiP.XViD-TDL.dp\n\nFormat  : AVI\nFormat/Info  : Audio Video Interleave\nFile size  : 700 MiB\nDuration  : 1h 27mn\nOverall bit rate : 1 122 Kbps\nWriting application  : Nandub v1.0rc2\nWriting library : Nandub build 1853/release\n\nVideo\nID  : 0\nFormat  : MPEG-4 Visual\nFormat profile : Advanced Simple@L5\nFormat settings, BVOP  : 2\nFormat settings, QPel : No\nFormat settings, GMC  : No warppoints\nFormat settings, Matrix  : Default (H.263)\nMuxing mode  : Packed bitstream\nCodec ID  : XVID\nCodec ID/Hint  : XviD\nDuration : 1h 27mn\nBit rate : 920 Kbps\nWidth  : 512 pixels\nHeight  : 384 pixels\nDisplay aspect ratio : 4:3\nFrame rate : 23.976 fps\nColor space : YUV\nChroma subsampling  : 4:2:0\nBit depth  : 8 bits\nScan type : Progressive\nCompression mode  : Lossy\nBits/(Pixel*Frame)  : 0.195\nStream size : 574 MiB (82%)\nWriting library   : XviD 1.0.2 (UTC 2004-08-29)\n\nAudio\nID  : 1\nFormat   : AC-3\nFormat/Info  : Audio Coding 3\nMode extension  : CM (complete main)\nFormat settings, Endianness  : Big\nCodec ID  : 2000\nDuration : 1h 27mn\nBit rate mode  : Constant\nBit rate   : 192 Kbps\nChannel(s)  : 2 channels\nChannel positions   : Front: L R\nSampling rate : 48.0 KHz\nBit depth   : 16 bits\nCompression mode  : Lossy\nStream size  : 120 MiB (17%)\nAlignment  : Split accross interleaves\nInterleave, duration  : 42 ms (1.00 video frame)\nInterleave, preload duration : 500 ms\n","torrent":{"xt":"urn:btih:807083a9dd488176f3ef633a5559b48e86536b4d","amp;dn":"Breaking+Dawn+%282004%29.DVDRiP.XViD-TDL","amp;tr":["udp%3A%2F%2Ftracker.openbittorrent.com%3A80","udp%3A%2F%2Fopen.demonii.com%3A1337","udp%3A%2F%2Ftracker.coppersurfer.tk%3A6969","udp%3A%2F%2Fexodus.desync.com%3A6969"],"infoHash":"807083a9dd488176f3ef633a5559b48e86536b4d","infoHashBuffer":{"type":"Buffer","data":[128,112,131,169,221,72,129,118,243,239,99,58,85,89,180,142,134,83,107,77]},"announce":[],"urlList":[]}}